<svg xmlns="http://www.w3.org/2000/svg" viewBox="0 0 512 512" width="100%" height="100%">
  <defs>
    <!-- ব্যাকগ্রাউন্ডের জন্য প্রিমিয়াম ডার্ক মেটালিক গ্রাডিয়েন্ট -->
    <linearGradient id="bgGrad" x1="0%" y1="0%" x2="100%" y2="100%">
      <stop offset="0%" stop-color="#0b0f19" />
      <stop offset="100%" stop-color="#111827" />
    </linearGradient>
    
    <!-- অক্ষরের জন্য ফিউচারিস্টিক নিয়ন গ্লো গ্রাডিয়েন্ট -->
    <linearGradient id="brandGrad" x1="0%" y1="100%" x2="100%" y2="0%">
      <stop offset="0%" stop-color="#2563eb" />
      <stop offset="50%" stop-color="#4f46e5" />
      <stop offset="100%" stop-color="#10b981" />
    </linearGradient>

    <!-- গ্লো বা লাইটিং ইফেক্ট -->
    <filter id="neonGlow" x="-20%" y="-20%" width="140%" height="140%">
      <feGaussianBlur stdDeviation="12" result="blur" />
      <feComposite in="SourceGraphic" in2="blur" operator="over" />
    </filter>
  </defs>

  <!-- স্কয়ার রাউন্ডেড প্রিমিয়াম ব্যাকগ্রাউন্ড (ফেভিকন ও অ্যাপ আইকনের জন্য পারফেক্ট) -->
  <rect width="512" height="512" rx="128" fill="url(#bgGrad)" />

  <!-- ভেতরের টেকনোলজি গ্রিড ও সার্চ রিং (সূক্ষ্ম ব্যাকগ্রাউন্ড আর্ট) -->
  <circle cx="256" cy="256" r="180" fill="none" stroke="#1e293b" stroke-width="4" stroke-dasharray="12 12" />
  <circle cx="256" cy="256" r="140" fill="none" stroke="#1e293b" stroke-width="2" />

  <!-- 'allalo' এর প্রধান 'a' অক্ষরটিকে ফিউচারিস্টিক ইনফিনিটি ও সার্চ লুপ স্টাইলে তৈরি -->
  <g filter="url(#neonGlow)">
    <!-- প্রধান অবয়ব: সার্চ লুপের সাথে সংযুক্ত মডার্ন 'a' -->
    <path d="M 320,340 
             C 320,370 280,380 256,380 
             C 180,380 140,330 140,256 
             C 140,182 180,132 256,132 
             C 320,132 350,170 350,220 
             L 350,340 
             C 350,370 370,380 390,380" 
          fill="none" 
          stroke="url(#brandGrad)" 
          stroke-width="42" 
          stroke-linecap="round" 
          stroke-linejoin="round" />

    <!-- 'a' এর ভেতরের লুপ কোর (যা এআই নোড নির্দেশ করে) -->
    <circle cx="256" cy="256" r="55" fill="none" stroke="url(#brandGrad)" stroke-width="32" />
    
    <!-- ফরোয়ার্ড এআই স্পার্ক নোড (ছোট্ট নিয়ন বিন্দু যা লাইভ ডাটাবাজ নির্দেশ করে) -->
    <circle cx="350" cy="160" r="20" fill="#10b981" />
  </g>
</svg>
